<?xml version="1.0" encoding="UTF-8" standalone="no"?>
<!-- Generator: Adobe Illustrator 16.0.0, SVG Export Plug-In . SVG Version: 6.00 Build 0)  -->

<svg
   xmlns:dc="http://purl.org/dc/elements/1.1/"
   xmlns:cc="http://creativecommons.org/ns#"
   xmlns:rdf="http://www.w3.org/1999/02/22-rdf-syntax-ns#"
   xmlns:svg="http://www.w3.org/2000/svg"
   xmlns="http://www.w3.org/2000/svg"
   xmlns:sodipodi="http://sodipodi.sourceforge.net/DTD/sodipodi-0.dtd"
   xmlns:inkscape="http://www.inkscape.org/namespaces/inkscape"
   version="1.1"
   id="Capa_1"
   x="0px"
   y="0px"
   width="572.026px"
   height="572.026px"
   viewBox="0 0 572.026 572.026"
   style="enable-background:new 0 0 572.026 572.026;"
   xml:space="preserve"
   inkscape:version="0.91 r13725"
   sodipodi:docname="brillo.svg"><metadata
     id="metadata4175"><rdf:RDF><cc:Work
         rdf:about=""><dc:format>image/svg+xml</dc:format><dc:type
           rdf:resource="http://purl.org/dc/dcmitype/StillImage" /></cc:Work></rdf:RDF></metadata><defs
     id="defs4173" /><sodipodi:namedview
     pagecolor="#ffffff"
     bordercolor="#666666"
     borderopacity="1"
     objecttolerance="10"
     gridtolerance="10"
     guidetolerance="10"
     inkscape:pageopacity="0"
     inkscape:pageshadow="2"
     inkscape:window-width="1600"
     inkscape:window-height="838"
     id="namedview4171"
     showgrid="false"
     inkscape:zoom="1.1695273"
     inkscape:cx="286.013"
     inkscape:cy="286.013"
     inkscape:window-x="-8"
     inkscape:window-y="-8"
     inkscape:window-maximized="1"
     inkscape:current-layer="Capa_1" /><g
     id="g4137"
     style="fill:#223d4e;fill-opacity:1"><path
       d="M566.263,207.137c-61.2-9.6-177.9-11.5-262,11.5c-5.7,0-30.6,0-36.3,0c-84.1-23-200.8-21-262-11.5   c-7.6,1.9-7.6,34.4-1.9,36.3c11.5,5.7,17.2,17.2,17.2,17.2s3.8,11.5,13.4,53.5c9.5,42.2,34.4,49.9,34.4,49.9s30.6,7.6,65,7.6   s55.5-1.899,78.4-13.399s32.5-42.101,32.5-42.101s11.5-26.8,19.1-51.6c1.9-7.7,40.2-7.7,42.1,0c7.601,24.9,19.101,51.6,19.101,51.6   s9.6,30.601,32.5,42.101c23,11.5,44,13.399,78.399,13.399c34.4,0,65-7.6,65-7.6s24.9-5.7,34.4-49.7c9.6-44,13.4-53.5,13.4-53.5   s5.699-11.5,17.199-17.2C573.963,241.637,573.963,207.137,566.263,207.137z"
       id="path4139"
       style="fill:#223d4e;fill-opacity:1" /></g><g
     id="g4141" /><g
     id="g4143" /><g
     id="g4145" /><g
     id="g4147" /><g
     id="g4149" /><g
     id="g4151" /><g
     id="g4153" /><g
     id="g4155" /><g
     id="g4157" /><g
     id="g4159" /><g
     id="g4161" /><g
     id="g4163" /><g
     id="g4165" /><g
     id="g4167" /><g
     id="g4169" /></svg>