<?xml version="1.0" encoding="UTF-8" standalone="no"?>
<!-- Generator: Adobe Illustrator 16.0.0, SVG Export Plug-In . SVG Version: 6.00 Build 0)  -->

<svg
   xmlns:dc="http://purl.org/dc/elements/1.1/"
   xmlns:cc="http://creativecommons.org/ns#"
   xmlns:rdf="http://www.w3.org/1999/02/22-rdf-syntax-ns#"
   xmlns:svg="http://www.w3.org/2000/svg"
   xmlns="http://www.w3.org/2000/svg"
   xmlns:sodipodi="http://sodipodi.sourceforge.net/DTD/sodipodi-0.dtd"
   xmlns:inkscape="http://www.inkscape.org/namespaces/inkscape"
   version="1.1"
   id="Capa_1"
   x="0px"
   y="0px"
   width="47px"
   height="47px"
   viewBox="0 0 47 47"
   style="enable-background:new 0 0 47 47;"
   xml:space="preserve"
   inkscape:version="0.91 r13725"
   sodipodi:docname="nivel.svg"><metadata
     id="metadata5396"><rdf:RDF><cc:Work
         rdf:about=""><dc:format>image/svg+xml</dc:format><dc:type
           rdf:resource="http://purl.org/dc/dcmitype/StillImage" /></cc:Work></rdf:RDF></metadata><defs
     id="defs5394" /><sodipodi:namedview
     pagecolor="#ffffff"
     bordercolor="#666666"
     borderopacity="1"
     objecttolerance="10"
     gridtolerance="10"
     guidetolerance="10"
     inkscape:pageopacity="0"
     inkscape:pageshadow="2"
     inkscape:window-width="693"
     inkscape:window-height="480"
     id="namedview5392"
     showgrid="false"
     inkscape:zoom="5.0212766"
     inkscape:cx="23.5"
     inkscape:cy="23.5"
     inkscape:window-x="0"
     inkscape:window-y="0"
     inkscape:window-maximized="0"
     inkscape:current-layer="Capa_1" /><g
     id="g5340"
     style="fill:#223d4e;fill-opacity:1"><g
       id="g5342"
       style="fill:#223d4e;fill-opacity:1"><path
         d="M1.855,30.921C0.831,30.921,0,31.752,0,32.775v12.369c0,1.024,0.831,1.854,1.855,1.854s1.855-0.831,1.855-1.854V32.775    C3.711,31.751,2.88,30.921,1.855,30.921z"
         id="path5344"
         style="fill:#223d4e;fill-opacity:1" /><path
         d="M7.268,18.553c-1.024,0-1.855,0.83-1.855,1.855v24.736C5.413,46.17,6.244,47,7.268,47s1.855-0.831,1.855-1.855V20.408    C9.123,19.383,8.292,18.553,7.268,18.553z"
         id="path5346"
         style="fill:#223d4e;fill-opacity:1" /><path
         d="M12.679,24.736c-1.024,0-1.855,0.832-1.855,1.855v18.553c0,1.024,0.831,1.854,1.855,1.854    c1.024,0,1.855-0.831,1.855-1.854V26.592C14.534,25.566,13.703,24.736,12.679,24.736z"
         id="path5348"
         style="fill:#223d4e;fill-opacity:1" /><path
         d="M18.091,12.369c-1.023,0-1.854,0.83-1.854,1.855v30.92c0,1.025,0.831,1.855,1.854,1.855c1.024,0,1.855-0.831,1.855-1.855    v-30.92C19.946,13.199,19.115,12.369,18.091,12.369z"
         id="path5350"
         style="fill:#223d4e;fill-opacity:1" /><path
         d="M23.504,0c-1.024,0-1.855,0.831-1.855,1.855v43.29c0,1.024,0.831,1.854,1.855,1.854c1.023,0,1.855-0.831,1.855-1.854    V1.855C25.359,0.831,24.527,0,23.504,0z"
         id="path5352"
         style="fill:#223d4e;fill-opacity:1" /><path
         d="M39.734,24.736c-1.023,0-1.854,0.832-1.854,1.855v18.553c0,1.024,0.831,1.854,1.854,1.854s1.854-0.831,1.854-1.854V26.592    C41.59,25.566,40.759,24.736,39.734,24.736z"
         id="path5354"
         style="fill:#223d4e;fill-opacity:1" /><path
         d="M45.145,12.369c-1.023,0-1.854,0.83-1.854,1.855v30.92c0,1.025,0.831,1.855,1.854,1.855C46.169,47,47,46.169,47,45.145    v-30.92C47,13.199,46.169,12.369,45.145,12.369z"
         id="path5356"
         style="fill:#223d4e;fill-opacity:1" /><path
         d="M28.915,18.553c-1.024,0-1.854,0.83-1.854,1.855v24.736c0,1.025,0.83,1.855,1.854,1.855s1.854-0.831,1.854-1.855V20.408    C30.771,19.383,29.939,18.553,28.915,18.553z"
         id="path5358"
         style="fill:#223d4e;fill-opacity:1" /><path
         d="M34.327,37.105c-1.024,0-1.854,0.83-1.854,1.854v6.185c0,1.024,0.83,1.854,1.854,1.854s1.854-0.831,1.854-1.854V38.96    C36.184,37.936,35.352,37.105,34.327,37.105z"
         id="path5360"
         style="fill:#223d4e;fill-opacity:1" /></g></g><g
     id="g5362" /><g
     id="g5364" /><g
     id="g5366" /><g
     id="g5368" /><g
     id="g5370" /><g
     id="g5372" /><g
     id="g5374" /><g
     id="g5376" /><g
     id="g5378" /><g
     id="g5380" /><g
     id="g5382" /><g
     id="g5384" /><g
     id="g5386" /><g
     id="g5388" /><g
     id="g5390" /></svg>