<?xml version="1.0" encoding="UTF-8" standalone="no"?>
<!-- Generator: Adobe Illustrator 16.0.0, SVG Export Plug-In . SVG Version: 6.00 Build 0)  -->

<svg
   xmlns:dc="http://purl.org/dc/elements/1.1/"
   xmlns:cc="http://creativecommons.org/ns#"
   xmlns:rdf="http://www.w3.org/1999/02/22-rdf-syntax-ns#"
   xmlns:svg="http://www.w3.org/2000/svg"
   xmlns="http://www.w3.org/2000/svg"
   xmlns:sodipodi="http://sodipodi.sourceforge.net/DTD/sodipodi-0.dtd"
   xmlns:inkscape="http://www.inkscape.org/namespaces/inkscape"
   version="1.1"
   id="Capa_1"
   x="0px"
   y="0px"
   width="514.8px"
   height="514.8px"
   viewBox="0 0 514.8 514.8"
   style="enable-background:new 0 0 514.8 514.8;"
   xml:space="preserve"
   inkscape:version="0.91 r13725"
   sodipodi:docname="precipitacion.svg"><metadata
     id="metadata5987"><rdf:RDF><cc:Work
         rdf:about=""><dc:format>image/svg+xml</dc:format><dc:type
           rdf:resource="http://purl.org/dc/dcmitype/StillImage" /></cc:Work></rdf:RDF></metadata><defs
     id="defs5985" /><sodipodi:namedview
     pagecolor="#ffffff"
     bordercolor="#666666"
     borderopacity="1"
     objecttolerance="10"
     gridtolerance="10"
     guidetolerance="10"
     inkscape:pageopacity="0"
     inkscape:pageshadow="2"
     inkscape:window-width="693"
     inkscape:window-height="480"
     id="namedview5983"
     showgrid="false"
     inkscape:zoom="0.45843047"
     inkscape:cx="257.39999"
     inkscape:cy="257.39999"
     inkscape:window-x="0"
     inkscape:window-y="0"
     inkscape:window-maximized="0"
     inkscape:current-layer="Capa_1" /><g
     id="g5939"
     style="fill:#223d4e;fill-opacity:1"><path
       d="M405.962,47.612c-7.037,0-13.674,1.597-19.688,4.312c-12.021-23.963-36.749-40.459-65.389-40.459   c-18.628,0-35.582,7.019-48.501,18.484C250.658,11.398,221.961,0,190.396,0C123.573,0,69.344,50.614,67.967,113.517   c-25.054,11.628-42.458,36.93-42.458,66.354c0,34.004,23.228,62.52,54.669,70.724l338.579,2.324   c39.178-1.405,70.533-33.526,70.533-73.048c0-28.219-15.988-52.661-39.388-64.872c2.61-5.929,4.121-12.441,4.121-19.335   C454.024,69.127,432.508,47.612,405.962,47.612z"
       id="path5941"
       style="fill:#223d4e;fill-opacity:1" /><path
       d="M141.818,372.364c8.501-16.438,9.524-91.36,9.524-91.36s-60.55,44.141-69.051,60.578   c-8.501,16.438-2.065,36.653,14.373,45.154C113.102,395.237,133.317,388.802,141.818,372.364z"
       id="path5943"
       style="fill:#223d4e;fill-opacity:1" /><path
       d="M266.13,372.364c8.501-16.438,9.524-91.36,9.524-91.36s-60.55,44.141-69.051,60.578   c-8.501,16.438-2.065,36.653,14.372,45.154C237.414,395.237,257.629,388.802,266.13,372.364z"
       id="path5945"
       style="fill:#223d4e;fill-opacity:1" /><path
       d="M354.861,386.736c16.438,8.501,36.653,2.065,45.154-14.372c8.501-16.438,9.524-91.36,9.524-91.36   s-60.55,44.141-69.051,60.578C331.988,358.021,338.423,378.235,354.861,386.736z"
       id="path5947"
       style="fill:#223d4e;fill-opacity:1" /><path
       d="M125.361,511.049c16.438,8.501,36.653,2.065,45.154-14.372c8.501-16.438,9.524-91.36,9.524-91.36   s-60.549,44.141-69.051,60.578C102.487,482.333,108.923,502.548,125.361,511.049z"
       id="path5949"
       style="fill:#223d4e;fill-opacity:1" /><path
       d="M249.673,511.049c16.438,8.501,36.653,2.065,45.154-14.372c8.501-16.438,9.524-91.36,9.524-91.36   s-60.55,44.141-69.051,60.578C226.8,482.333,233.235,502.548,249.673,511.049z"
       id="path5951"
       style="fill:#223d4e;fill-opacity:1" /></g><g
     id="g5953" /><g
     id="g5955" /><g
     id="g5957" /><g
     id="g5959" /><g
     id="g5961" /><g
     id="g5963" /><g
     id="g5965" /><g
     id="g5967" /><g
     id="g5969" /><g
     id="g5971" /><g
     id="g5973" /><g
     id="g5975" /><g
     id="g5977" /><g
     id="g5979" /><g
     id="g5981" /></svg>